<mxfile host="Electron" agent="Mozilla/5.0 (Windows NT 10.0; Win64; x64) AppleWebKit/537.36 (KHTML, like Gecko) draw.io/26.0.9 Chrome/128.0.6613.186 Electron/32.2.5 Safari/537.36" version="26.0.9">
  <diagram id="C5RBs43oDa-KdzZeNtuy" name="Page-1">
    <mxGraphModel dx="3163" dy="888" grid="1" gridSize="10" guides="1" tooltips="1" connect="1" arrows="1" fold="1" page="1" pageScale="1" pageWidth="827" pageHeight="1169" math="0" shadow="0">
      <root>
        <mxCell id="WIyWlLk6GJQsqaUBKTNV-0" />
        <mxCell id="WIyWlLk6GJQsqaUBKTNV-1" parent="WIyWlLk6GJQsqaUBKTNV-0" />
        <mxCell id="6ca-6jNYplKiAOESxt2s-0" value="&lt;font style=&quot;font-size: 18px;&quot;&gt;Brakes&lt;/font&gt;" style="rounded=0;whiteSpace=wrap;html=1;" vertex="1" parent="WIyWlLk6GJQsqaUBKTNV-1">
          <mxGeometry x="215" y="220" width="110" height="40" as="geometry" />
        </mxCell>
        <mxCell id="6ca-6jNYplKiAOESxt2s-2" value="&lt;font style=&quot;font-size: 18px;&quot;&gt;Engine&lt;/font&gt;" style="rounded=0;whiteSpace=wrap;html=1;" vertex="1" parent="WIyWlLk6GJQsqaUBKTNV-1">
          <mxGeometry x="-490" y="380" width="110" height="40" as="geometry" />
        </mxCell>
        <mxCell id="6ca-6jNYplKiAOESxt2s-6" value="&lt;font style=&quot;font-size: 18px;&quot;&gt;Suspension&lt;/font&gt;" style="rounded=0;whiteSpace=wrap;html=1;" vertex="1" parent="WIyWlLk6GJQsqaUBKTNV-1">
          <mxGeometry x="555" y="445" width="110" height="40" as="geometry" />
        </mxCell>
        <mxCell id="6ca-6jNYplKiAOESxt2s-8" value="&lt;font style=&quot;font-size: 18px;&quot;&gt;Motorcycle&lt;/font&gt;" style="rounded=0;whiteSpace=wrap;html=1;" vertex="1" parent="WIyWlLk6GJQsqaUBKTNV-1">
          <mxGeometry x="110" y="750" width="110" height="40" as="geometry" />
        </mxCell>
        <mxCell id="6ca-6jNYplKiAOESxt2s-9" value="&lt;span style=&quot;font-size: 18px;&quot;&gt;Performance&lt;/span&gt;" style="rounded=0;whiteSpace=wrap;html=1;" vertex="1" parent="WIyWlLk6GJQsqaUBKTNV-1">
          <mxGeometry x="-310" y="980" width="110" height="40" as="geometry" />
        </mxCell>
        <mxCell id="6ca-6jNYplKiAOESxt2s-10" value="&lt;font style=&quot;font-size: 18px;&quot;&gt;Dimensions&lt;/font&gt;" style="rounded=0;whiteSpace=wrap;html=1;" vertex="1" parent="WIyWlLk6GJQsqaUBKTNV-1">
          <mxGeometry x="-900" y="785" width="110" height="40" as="geometry" />
        </mxCell>
        <mxCell id="6ca-6jNYplKiAOESxt2s-13" value="&lt;font style=&quot;font-size: 14px;&quot;&gt;FrontBrakes&lt;/font&gt;" style="ellipse;whiteSpace=wrap;html=1;align=center;" vertex="1" parent="WIyWlLk6GJQsqaUBKTNV-1">
          <mxGeometry x="200" y="150" width="100" height="40" as="geometry" />
        </mxCell>
        <mxCell id="6ca-6jNYplKiAOESxt2s-14" value="&lt;font style=&quot;font-size: 14px;&quot;&gt;RearBrakes&lt;/font&gt;" style="ellipse;whiteSpace=wrap;html=1;align=center;" vertex="1" parent="WIyWlLk6GJQsqaUBKTNV-1">
          <mxGeometry x="90" y="210" width="100" height="40" as="geometry" />
        </mxCell>
        <mxCell id="6ca-6jNYplKiAOESxt2s-19" value="" style="group" vertex="1" connectable="0" parent="WIyWlLk6GJQsqaUBKTNV-1">
          <mxGeometry x="363" y="200" width="100" height="40" as="geometry" />
        </mxCell>
        <mxCell id="6ca-6jNYplKiAOESxt2s-23" value="" style="group" vertex="1" connectable="0" parent="6ca-6jNYplKiAOESxt2s-19">
          <mxGeometry width="100" height="40" as="geometry" />
        </mxCell>
        <mxCell id="6ca-6jNYplKiAOESxt2s-12" value="&lt;font style=&quot;font-size: 14px;&quot;&gt;Brake ID&lt;/font&gt;" style="ellipse;whiteSpace=wrap;html=1;align=center;" vertex="1" parent="6ca-6jNYplKiAOESxt2s-23">
          <mxGeometry width="100" height="40" as="geometry" />
        </mxCell>
        <mxCell id="6ca-6jNYplKiAOESxt2s-18" value="" style="line;strokeWidth=1;rotatable=0;dashed=0;labelPosition=right;align=left;verticalAlign=middle;spacingTop=0;spacingLeft=6;points=[];portConstraint=eastwest;" vertex="1" parent="6ca-6jNYplKiAOESxt2s-23">
          <mxGeometry x="20" y="23" width="60" height="10" as="geometry" />
        </mxCell>
        <mxCell id="6ca-6jNYplKiAOESxt2s-25" value="" style="group" vertex="1" connectable="0" parent="WIyWlLk6GJQsqaUBKTNV-1">
          <mxGeometry x="580" y="380" width="100" height="40" as="geometry" />
        </mxCell>
        <mxCell id="6ca-6jNYplKiAOESxt2s-26" value="" style="group" vertex="1" connectable="0" parent="6ca-6jNYplKiAOESxt2s-25">
          <mxGeometry width="100" height="40" as="geometry" />
        </mxCell>
        <mxCell id="6ca-6jNYplKiAOESxt2s-27" value="&lt;font style=&quot;font-size: 14px;&quot;&gt;Suspension ID&lt;/font&gt;" style="ellipse;whiteSpace=wrap;html=1;align=center;" vertex="1" parent="6ca-6jNYplKiAOESxt2s-26">
          <mxGeometry width="100" height="40" as="geometry" />
        </mxCell>
        <mxCell id="6ca-6jNYplKiAOESxt2s-28" value="" style="line;strokeWidth=1;rotatable=0;dashed=0;labelPosition=right;align=left;verticalAlign=middle;spacingTop=0;spacingLeft=6;points=[];portConstraint=eastwest;" vertex="1" parent="6ca-6jNYplKiAOESxt2s-26">
          <mxGeometry x="20" y="23" width="60" height="10" as="geometry" />
        </mxCell>
        <mxCell id="6ca-6jNYplKiAOESxt2s-29" value="&lt;font style=&quot;font-size: 14px;&quot;&gt;FrontSuspension&lt;/font&gt;" style="ellipse;whiteSpace=wrap;html=1;align=center;" vertex="1" parent="WIyWlLk6GJQsqaUBKTNV-1">
          <mxGeometry x="700" y="390" width="120" height="40" as="geometry" />
        </mxCell>
        <mxCell id="6ca-6jNYplKiAOESxt2s-30" value="&lt;font style=&quot;font-size: 14px;&quot;&gt;RearSuspension&lt;/font&gt;" style="ellipse;whiteSpace=wrap;html=1;align=center;" vertex="1" parent="WIyWlLk6GJQsqaUBKTNV-1">
          <mxGeometry x="550" y="520" width="120" height="40" as="geometry" />
        </mxCell>
        <mxCell id="6ca-6jNYplKiAOESxt2s-31" value="&lt;span style=&quot;font-size: 14px;&quot;&gt;RearWheelTravel&lt;/span&gt;" style="ellipse;whiteSpace=wrap;html=1;align=center;" vertex="1" parent="WIyWlLk6GJQsqaUBKTNV-1">
          <mxGeometry x="700" y="460" width="120" height="40" as="geometry" />
        </mxCell>
        <mxCell id="6ca-6jNYplKiAOESxt2s-32" value="&lt;span style=&quot;font-size: 14px;&quot;&gt;FrontWheelTravel&lt;/span&gt;" style="ellipse;whiteSpace=wrap;html=1;align=center;" vertex="1" parent="WIyWlLk6GJQsqaUBKTNV-1">
          <mxGeometry x="680" y="540" width="120" height="40" as="geometry" />
        </mxCell>
        <mxCell id="6ca-6jNYplKiAOESxt2s-33" value="&lt;span style=&quot;font-size: 14px;&quot;&gt;RearTire&lt;/span&gt;" style="ellipse;whiteSpace=wrap;html=1;align=center;" vertex="1" parent="WIyWlLk6GJQsqaUBKTNV-1">
          <mxGeometry x="660" y="320" width="120" height="40" as="geometry" />
        </mxCell>
        <mxCell id="6ca-6jNYplKiAOESxt2s-34" value="&lt;span style=&quot;font-size: 14px;&quot;&gt;FrontTire&lt;/span&gt;" style="ellipse;whiteSpace=wrap;html=1;align=center;" vertex="1" parent="WIyWlLk6GJQsqaUBKTNV-1">
          <mxGeometry x="510" y="320" width="120" height="40" as="geometry" />
        </mxCell>
        <mxCell id="6ca-6jNYplKiAOESxt2s-35" value="" style="group" vertex="1" connectable="0" parent="WIyWlLk6GJQsqaUBKTNV-1">
          <mxGeometry x="-600" y="325" width="100" height="40" as="geometry" />
        </mxCell>
        <mxCell id="6ca-6jNYplKiAOESxt2s-36" value="" style="group" vertex="1" connectable="0" parent="6ca-6jNYplKiAOESxt2s-35">
          <mxGeometry width="100" height="40" as="geometry" />
        </mxCell>
        <mxCell id="6ca-6jNYplKiAOESxt2s-37" value="&lt;font style=&quot;font-size: 14px;&quot;&gt;Engine ID&lt;/font&gt;" style="ellipse;whiteSpace=wrap;html=1;align=center;" vertex="1" parent="6ca-6jNYplKiAOESxt2s-36">
          <mxGeometry width="100" height="40" as="geometry" />
        </mxCell>
        <mxCell id="6ca-6jNYplKiAOESxt2s-38" value="" style="line;strokeWidth=1;rotatable=0;dashed=0;labelPosition=right;align=left;verticalAlign=middle;spacingTop=0;spacingLeft=6;points=[];portConstraint=eastwest;" vertex="1" parent="6ca-6jNYplKiAOESxt2s-36">
          <mxGeometry x="20" y="23" width="60" height="10" as="geometry" />
        </mxCell>
        <mxCell id="6ca-6jNYplKiAOESxt2s-39" value="&lt;span style=&quot;font-size: 14px;&quot;&gt;Displacement&lt;/span&gt;&lt;span style=&quot;color: rgba(0, 0, 0, 0); font-family: monospace; font-size: 0px; text-align: start; text-wrap: nowrap;&quot;&gt;%3CmxGraphModel%3E%3Croot%3E%3CmxCell%20id%3D%220%22%2F%3E%3CmxCell%20id%3D%221%22%20parent%3D%220%22%2F%3E%3CmxCell%20id%3D%222%22%20value%3D%22%26lt%3Bfont%20style%3D%26quot%3Bfont-size%3A%2014px%3B%26quot%3B%26gt%3BRearSuspension%26lt%3B%2Ffont%26gt%3B%22%20style%3D%22ellipse%3BwhiteSpace%3Dwrap%3Bhtml%3D1%3Balign%3Dcenter%3B%22%20vertex%3D%221%22%20parent%3D%221%22%3E%3CmxGeometry%20x%3D%22550%22%20y%3D%22520%22%20width%3D%22120%22%20height%3D%2240%22%20as%3D%22geometry%22%2F%3E%3C%2FmxCell%3E%3C%2Froot%3E%3C%2FmxGraphModel%3E&lt;/span&gt;" style="ellipse;whiteSpace=wrap;html=1;align=center;" vertex="1" parent="WIyWlLk6GJQsqaUBKTNV-1">
          <mxGeometry x="-460" y="305" width="120" height="40" as="geometry" />
        </mxCell>
        <mxCell id="6ca-6jNYplKiAOESxt2s-40" value="&lt;font style=&quot;font-size: 14px;&quot;&gt;RearSuspension&lt;/font&gt;" style="ellipse;whiteSpace=wrap;html=1;align=center;" vertex="1" parent="WIyWlLk6GJQsqaUBKTNV-1">
          <mxGeometry x="-640" y="405" width="120" height="40" as="geometry" />
        </mxCell>
        <mxCell id="6ca-6jNYplKiAOESxt2s-41" value="&lt;span style=&quot;font-size: 14px;&quot;&gt;EngineType&lt;/span&gt;" style="ellipse;whiteSpace=wrap;html=1;align=center;" vertex="1" parent="WIyWlLk6GJQsqaUBKTNV-1">
          <mxGeometry x="-360" y="355" width="120" height="40" as="geometry" />
        </mxCell>
        <mxCell id="6ca-6jNYplKiAOESxt2s-42" value="&lt;span style=&quot;font-size: 14px;&quot;&gt;Compression&lt;/span&gt;" style="ellipse;whiteSpace=wrap;html=1;align=center;" vertex="1" parent="WIyWlLk6GJQsqaUBKTNV-1">
          <mxGeometry x="-360" y="420" width="120" height="40" as="geometry" />
        </mxCell>
        <mxCell id="6ca-6jNYplKiAOESxt2s-43" value="&lt;span style=&quot;font-size: 14px;&quot;&gt;BoreStrock&lt;/span&gt;" style="ellipse;whiteSpace=wrap;html=1;align=center;" vertex="1" parent="WIyWlLk6GJQsqaUBKTNV-1">
          <mxGeometry x="-520" y="435" width="120" height="40" as="geometry" />
        </mxCell>
        <mxCell id="6ca-6jNYplKiAOESxt2s-44" value="&lt;span style=&quot;font-size: 14px;&quot;&gt;ValvesPerCylinder&lt;/span&gt;" style="ellipse;whiteSpace=wrap;html=1;align=center;" vertex="1" parent="WIyWlLk6GJQsqaUBKTNV-1">
          <mxGeometry x="-315" y="290" width="120" height="40" as="geometry" />
        </mxCell>
        <mxCell id="6ca-6jNYplKiAOESxt2s-45" value="&lt;span style=&quot;font-size: 14px;&quot;&gt;FuleSystem&lt;/span&gt;" style="ellipse;whiteSpace=wrap;html=1;align=center;" vertex="1" parent="WIyWlLk6GJQsqaUBKTNV-1">
          <mxGeometry x="-413" y="485" width="120" height="40" as="geometry" />
        </mxCell>
        <mxCell id="6ca-6jNYplKiAOESxt2s-46" value="&lt;span style=&quot;font-size: 14px;&quot;&gt;FuleControl&lt;/span&gt;" style="ellipse;whiteSpace=wrap;html=1;align=center;" vertex="1" parent="WIyWlLk6GJQsqaUBKTNV-1">
          <mxGeometry x="-580" y="250" width="120" height="40" as="geometry" />
        </mxCell>
        <mxCell id="6ca-6jNYplKiAOESxt2s-47" value="&lt;span style=&quot;font-size: 14px;&quot;&gt;Lubricant&lt;/span&gt;" style="ellipse;whiteSpace=wrap;html=1;align=center;" vertex="1" parent="WIyWlLk6GJQsqaUBKTNV-1">
          <mxGeometry x="-215" y="330" width="120" height="40" as="geometry" />
        </mxCell>
        <mxCell id="6ca-6jNYplKiAOESxt2s-48" value="&lt;span style=&quot;font-size: 14px;&quot;&gt;Cooling&lt;/span&gt;" style="ellipse;whiteSpace=wrap;html=1;align=center;" vertex="1" parent="WIyWlLk6GJQsqaUBKTNV-1">
          <mxGeometry x="-435" y="250" width="120" height="40" as="geometry" />
        </mxCell>
        <mxCell id="6ca-6jNYplKiAOESxt2s-49" value="&lt;span style=&quot;font-size: 14px;&quot;&gt;Gearbox&lt;/span&gt;" style="ellipse;whiteSpace=wrap;html=1;align=center;" vertex="1" parent="WIyWlLk6GJQsqaUBKTNV-1">
          <mxGeometry x="-650" y="475" width="120" height="40" as="geometry" />
        </mxCell>
        <mxCell id="6ca-6jNYplKiAOESxt2s-50" value="&lt;span style=&quot;font-size: 14px;&quot;&gt;Transmission&lt;/span&gt;" style="ellipse;whiteSpace=wrap;html=1;align=center;" vertex="1" parent="WIyWlLk6GJQsqaUBKTNV-1">
          <mxGeometry x="-710" y="275" width="120" height="40" as="geometry" />
        </mxCell>
        <mxCell id="6ca-6jNYplKiAOESxt2s-51" value="&lt;span style=&quot;font-size: 14px;&quot;&gt;Clutch&lt;/span&gt;" style="ellipse;whiteSpace=wrap;html=1;align=center;" vertex="1" parent="WIyWlLk6GJQsqaUBKTNV-1">
          <mxGeometry x="-730" y="345" width="120" height="40" as="geometry" />
        </mxCell>
        <mxCell id="6ca-6jNYplKiAOESxt2s-52" value="&lt;span style=&quot;font-size: 14px;&quot;&gt;Frame&lt;/span&gt;" style="ellipse;whiteSpace=wrap;html=1;align=center;" vertex="1" parent="WIyWlLk6GJQsqaUBKTNV-1">
          <mxGeometry x="-760" y="435" width="120" height="40" as="geometry" />
        </mxCell>
        <mxCell id="6ca-6jNYplKiAOESxt2s-56" value="" style="group" vertex="1" connectable="0" parent="WIyWlLk6GJQsqaUBKTNV-1">
          <mxGeometry x="120" y="660" width="100" height="40" as="geometry" />
        </mxCell>
        <mxCell id="6ca-6jNYplKiAOESxt2s-57" value="" style="group" vertex="1" connectable="0" parent="6ca-6jNYplKiAOESxt2s-56">
          <mxGeometry width="100" height="40" as="geometry" />
        </mxCell>
        <mxCell id="6ca-6jNYplKiAOESxt2s-58" value="&lt;font style=&quot;font-size: 14px;&quot;&gt;Motorcycle ID&lt;/font&gt;" style="ellipse;whiteSpace=wrap;html=1;align=center;" vertex="1" parent="6ca-6jNYplKiAOESxt2s-57">
          <mxGeometry width="100" height="40" as="geometry" />
        </mxCell>
        <mxCell id="6ca-6jNYplKiAOESxt2s-59" value="" style="line;strokeWidth=1;rotatable=0;dashed=0;labelPosition=right;align=left;verticalAlign=middle;spacingTop=0;spacingLeft=6;points=[];portConstraint=eastwest;" vertex="1" parent="6ca-6jNYplKiAOESxt2s-57">
          <mxGeometry x="20" y="23" width="60" height="10" as="geometry" />
        </mxCell>
        <mxCell id="6ca-6jNYplKiAOESxt2s-60" value="&lt;span style=&quot;font-size: 14px;&quot;&gt;Make&lt;/span&gt;" style="ellipse;whiteSpace=wrap;html=1;align=center;" vertex="1" parent="WIyWlLk6GJQsqaUBKTNV-1">
          <mxGeometry x="-30" y="700" width="120" height="40" as="geometry" />
        </mxCell>
        <mxCell id="6ca-6jNYplKiAOESxt2s-61" value="&lt;span style=&quot;font-size: 14px;&quot;&gt;Model&lt;/span&gt;" style="ellipse;whiteSpace=wrap;html=1;align=center;" vertex="1" parent="WIyWlLk6GJQsqaUBKTNV-1">
          <mxGeometry x="243" y="710" width="120" height="40" as="geometry" />
        </mxCell>
        <mxCell id="6ca-6jNYplKiAOESxt2s-62" value="&lt;span style=&quot;font-size: 14px;&quot;&gt;Year&lt;/span&gt;" style="ellipse;whiteSpace=wrap;html=1;align=center;" vertex="1" parent="WIyWlLk6GJQsqaUBKTNV-1">
          <mxGeometry x="-40" y="790" width="120" height="40" as="geometry" />
        </mxCell>
        <mxCell id="6ca-6jNYplKiAOESxt2s-63" value="&lt;span style=&quot;font-size: 14px;&quot;&gt;Type&lt;/span&gt;" style="ellipse;whiteSpace=wrap;html=1;align=center;" vertex="1" parent="WIyWlLk6GJQsqaUBKTNV-1">
          <mxGeometry x="95" y="830" width="120" height="40" as="geometry" />
        </mxCell>
        <mxCell id="6ca-6jNYplKiAOESxt2s-65" value="&lt;span style=&quot;font-size: 14px;&quot;&gt;Model&lt;/span&gt;" style="ellipse;whiteSpace=wrap;html=1;align=center;" vertex="1" parent="WIyWlLk6GJQsqaUBKTNV-1">
          <mxGeometry x="243" y="790" width="120" height="40" as="geometry" />
        </mxCell>
        <mxCell id="6ca-6jNYplKiAOESxt2s-66" value="" style="group" vertex="1" connectable="0" parent="WIyWlLk6GJQsqaUBKTNV-1">
          <mxGeometry x="-980" y="715" width="100" height="40" as="geometry" />
        </mxCell>
        <mxCell id="6ca-6jNYplKiAOESxt2s-67" value="" style="group" vertex="1" connectable="0" parent="6ca-6jNYplKiAOESxt2s-66">
          <mxGeometry width="100" height="40" as="geometry" />
        </mxCell>
        <mxCell id="6ca-6jNYplKiAOESxt2s-68" value="&lt;font style=&quot;font-size: 14px;&quot;&gt;Dimension ID&lt;/font&gt;" style="ellipse;whiteSpace=wrap;html=1;align=center;" vertex="1" parent="6ca-6jNYplKiAOESxt2s-67">
          <mxGeometry width="100" height="40" as="geometry" />
        </mxCell>
        <mxCell id="6ca-6jNYplKiAOESxt2s-69" value="" style="line;strokeWidth=1;rotatable=0;dashed=0;labelPosition=right;align=left;verticalAlign=middle;spacingTop=0;spacingLeft=6;points=[];portConstraint=eastwest;" vertex="1" parent="6ca-6jNYplKiAOESxt2s-67">
          <mxGeometry x="20" y="23" width="60" height="10" as="geometry" />
        </mxCell>
        <mxCell id="6ca-6jNYplKiAOESxt2s-74" value="&lt;span style=&quot;font-size: 14px;&quot;&gt;SeatHeight&lt;/span&gt;" style="ellipse;whiteSpace=wrap;html=1;align=center;" vertex="1" parent="WIyWlLk6GJQsqaUBKTNV-1">
          <mxGeometry x="-880" y="695" width="110" height="40" as="geometry" />
        </mxCell>
        <mxCell id="6ca-6jNYplKiAOESxt2s-75" value="&lt;span style=&quot;font-size: 14px;&quot;&gt;GroundClearence&lt;/span&gt;" style="ellipse;whiteSpace=wrap;html=1;align=center;" vertex="1" parent="WIyWlLk6GJQsqaUBKTNV-1">
          <mxGeometry x="-1060" y="755" width="120" height="40" as="geometry" />
        </mxCell>
        <mxCell id="6ca-6jNYplKiAOESxt2s-76" value="&lt;span style=&quot;font-size: 14px;&quot;&gt;Wheelbase&lt;/span&gt;" style="ellipse;whiteSpace=wrap;html=1;align=center;" vertex="1" parent="WIyWlLk6GJQsqaUBKTNV-1">
          <mxGeometry x="-745" y="785" width="120" height="40" as="geometry" />
        </mxCell>
        <mxCell id="6ca-6jNYplKiAOESxt2s-77" value="&lt;span style=&quot;font-size: 14px;&quot;&gt;FuleCapasity&lt;/span&gt;" style="ellipse;whiteSpace=wrap;html=1;align=center;" vertex="1" parent="WIyWlLk6GJQsqaUBKTNV-1">
          <mxGeometry x="-1030" y="805" width="120" height="40" as="geometry" />
        </mxCell>
        <mxCell id="6ca-6jNYplKiAOESxt2s-78" value="&lt;span style=&quot;font-size: 14px;&quot;&gt;TotalWheight&lt;/span&gt;" style="ellipse;whiteSpace=wrap;html=1;align=center;" vertex="1" parent="WIyWlLk6GJQsqaUBKTNV-1">
          <mxGeometry x="-940" y="845" width="120" height="40" as="geometry" />
        </mxCell>
        <mxCell id="6ca-6jNYplKiAOESxt2s-79" value="&lt;span style=&quot;font-size: 14px;&quot;&gt;TotalHeight&lt;/span&gt;" style="ellipse;whiteSpace=wrap;html=1;align=center;" vertex="1" parent="WIyWlLk6GJQsqaUBKTNV-1">
          <mxGeometry x="-770" y="725" width="120" height="40" as="geometry" />
        </mxCell>
        <mxCell id="6ca-6jNYplKiAOESxt2s-80" value="&lt;span style=&quot;font-size: 14px;&quot;&gt;TotalLength&lt;/span&gt;" style="ellipse;whiteSpace=wrap;html=1;align=center;" vertex="1" parent="WIyWlLk6GJQsqaUBKTNV-1">
          <mxGeometry x="-800" y="845" width="120" height="40" as="geometry" />
        </mxCell>
        <mxCell id="6ca-6jNYplKiAOESxt2s-81" value="&lt;span style=&quot;font-size: 14px;&quot;&gt;TotalWidth&lt;/span&gt;" style="ellipse;whiteSpace=wrap;html=1;align=center;" vertex="1" parent="WIyWlLk6GJQsqaUBKTNV-1">
          <mxGeometry x="-770" y="665" width="120" height="40" as="geometry" />
        </mxCell>
        <mxCell id="6ca-6jNYplKiAOESxt2s-82" value="&lt;span style=&quot;font-size: 14px;&quot;&gt;DryWeight&lt;/span&gt;" style="ellipse;whiteSpace=wrap;html=1;align=center;" vertex="1" parent="WIyWlLk6GJQsqaUBKTNV-1">
          <mxGeometry x="-980" y="655" width="120" height="40" as="geometry" />
        </mxCell>
        <mxCell id="6ca-6jNYplKiAOESxt2s-84" value="" style="group" vertex="1" connectable="0" parent="WIyWlLk6GJQsqaUBKTNV-1">
          <mxGeometry x="-310" y="910" width="110" height="40" as="geometry" />
        </mxCell>
        <mxCell id="6ca-6jNYplKiAOESxt2s-85" value="&lt;font style=&quot;font-size: 14px;&quot;&gt;Performance ID&lt;/font&gt;" style="ellipse;whiteSpace=wrap;html=1;align=center;" vertex="1" parent="6ca-6jNYplKiAOESxt2s-84">
          <mxGeometry width="110.00000000000001" height="40" as="geometry" />
        </mxCell>
        <mxCell id="6ca-6jNYplKiAOESxt2s-86" value="" style="line;strokeWidth=1;rotatable=0;dashed=0;labelPosition=right;align=left;verticalAlign=middle;spacingTop=0;spacingLeft=6;points=[];portConstraint=eastwest;" vertex="1" parent="6ca-6jNYplKiAOESxt2s-84">
          <mxGeometry x="16.92" y="23" width="73.08" height="10" as="geometry" />
        </mxCell>
        <mxCell id="6ca-6jNYplKiAOESxt2s-87" value="&lt;span style=&quot;font-size: 14px;&quot;&gt;Power&lt;/span&gt;" style="ellipse;whiteSpace=wrap;html=1;align=center;" vertex="1" parent="WIyWlLk6GJQsqaUBKTNV-1">
          <mxGeometry x="-490" y="990" width="120" height="40" as="geometry" />
        </mxCell>
        <mxCell id="6ca-6jNYplKiAOESxt2s-88" value="&lt;span style=&quot;font-size: 14px;&quot;&gt;Torque&lt;/span&gt;" style="ellipse;whiteSpace=wrap;html=1;align=center;" vertex="1" parent="WIyWlLk6GJQsqaUBKTNV-1">
          <mxGeometry x="-190" y="950" width="120" height="40" as="geometry" />
        </mxCell>
        <mxCell id="6ca-6jNYplKiAOESxt2s-89" value="&lt;span style=&quot;font-size: 14px;&quot;&gt;TopSpeed&lt;/span&gt;" style="ellipse;whiteSpace=wrap;html=1;align=center;" vertex="1" parent="WIyWlLk6GJQsqaUBKTNV-1">
          <mxGeometry x="-420" y="1040" width="120" height="40" as="geometry" />
        </mxCell>
        <mxCell id="6ca-6jNYplKiAOESxt2s-90" value="&lt;span style=&quot;font-size: 14px;&quot;&gt;FuelConsumtion&lt;/span&gt;" style="ellipse;whiteSpace=wrap;html=1;align=center;" vertex="1" parent="WIyWlLk6GJQsqaUBKTNV-1">
          <mxGeometry x="-280" y="1040" width="120" height="40" as="geometry" />
        </mxCell>
        <mxCell id="6ca-6jNYplKiAOESxt2s-91" value="&lt;span style=&quot;font-size: 14px;&quot;&gt;Emissions&lt;/span&gt;" style="ellipse;whiteSpace=wrap;html=1;align=center;" vertex="1" parent="WIyWlLk6GJQsqaUBKTNV-1">
          <mxGeometry x="-435" y="930" width="120" height="40" as="geometry" />
        </mxCell>
      </root>
    </mxGraphModel>
  </diagram>
</mxfile>
